<?xml version="1.0" encoding="utf-8"?>
<!-- Generator: Adobe Illustrator 24.2.1, SVG Export Plug-In . SVG Version: 6.00 Build 0)  -->
<svg version="1.1" id="Layer_1" xmlns="http://www.w3.org/2000/svg" xmlns:xlink="http://www.w3.org/1999/xlink" x="0px" y="0px"
	 width="1242.1px" height="1255.4px" viewBox="0 0 1242.1 1255.4" style="enable-background:new 0 0 1242.1 1255.4;"
	 xml:space="preserve">
<style type="text/css">
	.st0{fill:#243444;}
	.st1{fill:#FFFFFF;}
	.st2{fill:none;stroke:#000000;stroke-miterlimit:10;}
	.st3{fill:#D2B786;}
	.st4{fill:none;}
	.st5{fill:#686E73;}
	.st6{fill:none;stroke:#686E73;stroke-width:13;stroke-miterlimit:10;}
</style>
<rect x="-28.3" y="-15" class="st0" width="1298.7" height="1285.4"/>
<g>
	
		<image style="overflow:visible;opacity:0.25;" width="2569" height="4351" xlink:href="A3A11D1B8440BE9A.png"  transform="matrix(0.24 0 0 0.24 319.8358 104.6467)">
	</image>
	<g>
		<path class="st1" d="M816.6,1093.4H425.4c-35.4,0-64.1-28.7-64.1-64.1V210.4c0-35.4,28.7-64.1,64.1-64.1h391.2
			c35.4,0,64.1,28.7,64.1,64.1v818.9C880.7,1064.7,852,1093.4,816.6,1093.4z"/>
		<path class="st2" d="M816.6,1093.4H425.4c-35.4,0-64.1-28.7-64.1-64.1V210.4c0-35.4,28.7-64.1,64.1-64.1h391.2
			c35.4,0,64.1,28.7,64.1,64.1v818.9C880.7,1064.7,852,1093.4,816.6,1093.4z"/>
	</g>
</g>
<g>
	<path class="st0" d="M642.6,483.9c3,0,5.4-2.4,5.4-5.4s-2.4-5.4-5.4-5.4c-3,0-5.4,2.4-5.4,5.4S639.7,483.9,642.6,483.9z"/>
	<path class="st0" d="M523.8,483.9c3,0,5.4-2.4,5.4-5.4s-2.4-5.4-5.4-5.4c-3,0-5.4,2.4-5.4,5.4S520.8,483.9,523.8,483.9z"/>
	<path class="st3" d="M488.2,397.4c3,0,5.4-2.4,5.4-5.4v-51.9h51.9c3,0,5.4-2.4,5.4-5.4s-2.4-5.4-5.4-5.4h-57.3
		c-3,0-5.4,2.4-5.4,5.4V392C482.8,395,485.2,397.4,488.2,397.4z"/>
	<path class="st3" d="M550.8,600.5c0-3-2.4-5.4-5.4-5.4h-51.9v-51.9c0-3-2.4-5.4-5.4-5.4s-5.4,2.4-5.4,5.4v57.3c0,3,2.4,5.4,5.4,5.4
		h57.3C548.4,605.9,550.8,603.5,550.8,600.5z"/>
	<path class="st3" d="M753.9,537.9c-3,0-5.4,2.4-5.4,5.4v51.9h-51.9c-3,0-5.4,2.4-5.4,5.4s2.4,5.4,5.4,5.4h57.3c3,0,5.4-2.4,5.4-5.4
		v-57.3C759.3,540.3,756.9,537.9,753.9,537.9z"/>
	<path class="st3" d="M753.9,329.4h-57.3c-3,0-5.4,2.4-5.4,5.4s2.4,5.4,5.4,5.4h51.9V392c0,3,2.4,5.4,5.4,5.4c3,0,5.4-2.4,5.4-5.4
		v-57.3C759.3,331.8,756.9,329.4,753.9,329.4z"/>
	<path class="st0" d="M518.4,564.9c0,3,2.4,5.4,5.4,5.4h54c3,0,5.4-2.4,5.4-5.4v-54c0-3-2.4-5.4-5.4-5.4h-54c-3,0-5.4,2.4-5.4,5.4
		V564.9z M529.2,516.3h43.2v43.2h-43.2V516.3z"/>
	<path class="st0" d="M577.8,365h-54c-3,0-5.4,2.4-5.4,5.4v54c0,3,2.4,5.4,5.4,5.4h54c3,0,5.4-2.4,5.4-5.4v-54
		C583.2,367.5,580.8,365,577.8,365z M572.4,419.1h-43.2v-43.2h43.2V419.1z"/>
	<path class="st0" d="M723.7,370.4c0-3-2.4-5.4-5.4-5.4h-54c-3,0-5.4,2.4-5.4,5.4v54c0,3,2.4,5.4,5.4,5.4h54c3,0,5.4-2.4,5.4-5.4
		V370.4z M712.9,419.1h-43.2v-43.2h43.2V419.1z"/>
	<path class="st0" d="M723.7,564.9v-54c0-3-2.4-5.4-5.4-5.4h-54c-3,0-5.4,2.4-5.4,5.4v54c0,3,2.4,5.4,5.4,5.4h54
		C721.2,570.3,723.7,567.9,723.7,564.9z M712.9,559.5h-43.2v-43.2h43.2V559.5z"/>
	<path class="st0" d="M556.2,527.1h-10.8c-3,0-5.4,2.4-5.4,5.4v10.8c0,3,2.4,5.4,5.4,5.4h10.8c3,0,5.4-2.4,5.4-5.4v-10.8
		C561.6,529.5,559.2,527.1,556.2,527.1z"/>
	<path class="st0" d="M545.4,408.2h10.8c3,0,5.4-2.4,5.4-5.4V392c0-3-2.4-5.4-5.4-5.4h-10.8c-3,0-5.4,2.4-5.4,5.4v10.8
		C540,405.8,542.4,408.2,545.4,408.2z"/>
	<path class="st0" d="M685.9,408.2h10.8c3,0,5.4-2.4,5.4-5.4V392c0-3-2.4-5.4-5.4-5.4h-10.8c-3,0-5.4,2.4-5.4,5.4v10.8
		C680.5,405.8,682.9,408.2,685.9,408.2z"/>
	<path class="st0" d="M685.9,548.7h10.8c3,0,5.4-2.4,5.4-5.4v-10.8c0-3-2.4-5.4-5.4-5.4h-10.8c-3,0-5.4,2.4-5.4,5.4v10.8
		C680.5,546.3,682.9,548.7,685.9,548.7z"/>
	<path class="st0" d="M540,478.5c0,3,2.4,5.4,5.4,5.4h70.2v27c0,3,2.4,5.4,5.4,5.4c3,0,5.4-2.4,5.4-5.4v-32.4c0-3-2.4-5.4-5.4-5.4
		h-75.6C542.4,473.1,540,475.5,540,478.5z"/>
	<path class="st0" d="M577.8,462.3c3,0,5.4-2.4,5.4-5.4s-2.4-5.4-5.4-5.4h-54c-3,0-5.4,2.4-5.4,5.4s2.4,5.4,5.4,5.4H577.8z"/>
	<path class="st0" d="M599.4,462.3H621c3,0,5.4-2.4,5.4-5.4s-2.4-5.4-5.4-5.4h-21.6c-3,0-5.4,2.4-5.4,5.4S596.4,462.3,599.4,462.3z"
		/>
	<path class="st0" d="M599.4,365c-3,0-5.4,2.4-5.4,5.4v54c0,3,2.4,5.4,5.4,5.4h37.8v27c0,3,2.4,5.4,5.4,5.4h21.6
		c3,0,5.4-2.4,5.4-5.4s-2.4-5.4-5.4-5.4H648v-27c0-3-2.4-5.4-5.4-5.4h-37.8v-48.6C604.8,367.5,602.4,365,599.4,365z"/>
	<path class="st0" d="M718.3,451.5h-32.4c-3,0-5.4,2.4-5.4,5.4s2.4,5.4,5.4,5.4h32.4c3,0,5.4-2.4,5.4-5.4S721.2,451.5,718.3,451.5z"
		/>
	<path class="st0" d="M718.3,473.1h-54c-3,0-5.4,2.4-5.4,5.4s2.4,5.4,5.4,5.4h54c3,0,5.4-2.4,5.4-5.4S721.2,473.1,718.3,473.1z"/>
	<path class="st0" d="M621,527.1h-21.6c-3,0-5.4,2.4-5.4,5.4v32.4c0,3,2.4,5.4,5.4,5.4c3,0,5.4-2.4,5.4-5.4v-27H621
		c3,0,5.4-2.4,5.4-5.4S624,527.1,621,527.1z"/>
	<path class="st0" d="M637.2,559.5H621c-3,0-5.4,2.4-5.4,5.4s2.4,5.4,5.4,5.4h21.6c3,0,5.4-2.4,5.4-5.4v-64.8c0-3-2.4-5.4-5.4-5.4
		c-3,0-5.4,2.4-5.4,5.4V559.5z"/>
	<path class="st0" d="M642.6,408.2c3,0,5.4-2.4,5.4-5.4v-32.4c0-3-2.4-5.4-5.4-5.4c-3,0-5.4,2.4-5.4,5.4v27H621
		c-3,0-5.4,2.4-5.4,5.4s2.4,5.4,5.4,5.4H642.6z"/>
</g>
<g>
	<rect x="409.5" y="732.9" class="st4" width="423" height="131.7"/>
	<path class="st0" d="M463.2,772l-9.3-25.5l-8.9,25.5h-7.8l-12.9-37.8h8.2l8.7,27.3l9.2-27.3h6.6l9.6,27.3l8.2-27.3h8.2L470.9,772
		H463.2z"/>
	<path class="st0" d="M514.7,760.3l-22.7-0.1c1.2,3.9,5,5.8,9.2,5.7c4.4-0.1,7.6-2.2,9.3-3.6l3.7,5.5c-2.4,2.1-7.1,4.6-13.2,4.6
		c-8.7,0-17-5.1-17-15.2c0-9.4,7.3-15.2,16.1-15.1C511.1,742.3,516.9,751.7,514.7,760.3z M507.4,754.1c0-2.9-2.6-5.5-7.2-5.5
		c-3.9,0-7.1,1.9-8.2,5.5H507.4z"/>
	<path class="st0" d="M566.6,746.3l-3.3,5.8c-1.6-1.8-4.2-3.3-7.7-3.3c-5.5,0-9.3,3.9-9.3,8.7c-0.1,5,3.9,8.7,9.1,8.7
		c3.4,0,6-1.6,7.8-3.4l3.6,5.2c-2.4,2.1-6.6,4.6-12.2,4.6c-7.9,0-15.9-5.1-15.9-15.1c-0.1-10.1,8.4-15.3,16.5-15.3
		C560.3,742.3,564.2,744.4,566.6,746.3z"/>
	<path class="st0" d="M600.1,772h-7l-0.2-3.6c-1.5,2.1-4.4,4-8.5,4c-7.2,0-14.2-5.9-14.2-15.3c0-9,6.7-14.5,13.6-14.5
		c4.2,0,7.3,2.1,9,4.5l0.2-4h7.2V772z M577.4,757.2c0,5.2,3.7,8.6,8.3,8.6c3,0,5.5-1.5,7.1-3.5v-9.1c-1.7-2.5-4.4-4.3-7.5-4.3
		C581.2,748.9,577.4,752,577.4,757.2z"/>
	<path class="st0" d="M636,755.1V772h-7.6l0.1-16.3c0-3.9-2.1-6.5-5.6-6.5c-3.6,0-6.5,2.8-8.1,5.2V772h-7.6V743h7.3l0.3,4.9
		c2.1-2.4,5.6-5.5,10.4-5.5C631,742.5,636,746.8,636,755.1z"/>
	<path class="st0" d="M645.6,731.3c0.7,4.1-2.4,7.7-6.5,8.4l-0.1-2.4c1.2-0.4,2.2-1.5,2.2-2.9c-1.8,0.8-4-0.4-4.4-2.7
		c-0.4-2.2,1.1-4.2,3.3-4.5C642.6,726.7,645.1,728.1,645.6,731.3z"/>
	<path class="st0" d="M668.9,743v6.5h-8.8v11.2c0.1,3.9,2.3,5.2,4.6,5.2c2.2,0.1,4.2-1,5.4-1.8l2.1,6c-1.5,0.9-4.5,2.3-8.4,2.3
		c-7,0-11.3-4.9-11.3-11.5v-11.5h-5.5V743h5.5v-8.9h7.6v8.9H668.9z"/>
	<path class="st0" d="M721.2,772l-5.7-18.1l-5.6,18.1h-8.4l-9.1-28.9h7.7l5.7,19.5l6.5-19.5h6.6l6.5,19.8L731,743h7.7l-9.1,28.9
		H721.2z"/>
	<path class="st0" d="M771.2,772h-7l-0.2-3.6c-1.5,2.1-4.4,4-8.5,4c-7.2,0-14.2-5.9-14.2-15.3c0-9,6.7-14.5,13.6-14.5
		c4.2,0,7.3,2.1,9,4.5l0.2-4h7.2V772z M748.4,757.2c0,5.2,3.7,8.6,8.3,8.6c3,0,5.5-1.5,7.1-3.5v-9.1c-1.7-2.5-4.4-4.3-7.5-4.3
		C752.3,748.9,748.4,752,748.4,757.2z"/>
	<path class="st0" d="M787.2,734.8c0,2.4-2.1,4.2-4.4,4.2c-2.4,0-4.4-1.8-4.4-4.2c0-2.3,1.9-4.3,4.3-4.3
		C785.2,730.5,787.2,732.4,787.2,734.8z M779,772V743h7.6V772H779z"/>
	<path class="st0" d="M814.4,743v6.5h-8.8v11.2c0.1,3.9,2.3,5.2,4.6,5.2c2.2,0.1,4.2-1,5.4-1.8l2.1,6c-1.5,0.9-4.5,2.3-8.4,2.3
		c-7,0-11.3-4.9-11.3-11.5v-11.5h-5.5V743h5.5v-8.9h7.6v8.9H814.4z"/>
	<path class="st0" d="M479.9,807.8v6.5h-8.8v11.2c0.1,3.9,2.3,5.2,4.6,5.2c2.2,0.1,4.2-1,5.4-1.8l2.1,6c-1.5,0.9-4.5,2.3-8.4,2.3
		c-7,0-11.3-4.9-11.3-11.5v-11.5H458v-6.5h5.5V799h7.6v8.9H479.9z"/>
	<path class="st0" d="M517.2,822.2c0,10-7.8,15-15.8,15c-8.6,0-15.9-5.5-15.9-15.1c0-8.8,6.8-15.1,15.9-15.1
		C509.8,807.1,517.2,812.7,517.2,822.2z M493,822.2c0,5.7,3.9,8.5,8.3,8.5c4.2,0,8.2-2.7,8.2-8.5c0-5.9-4-8.6-8.2-8.6
		C496.8,813.6,493,816.6,493,822.2z"/>
	<path class="st0" d="M566,809.3l-1.8,6.3c-1.7-0.8-5.3-2.2-9.1-2.2c-3.6,0-5.5,1.4-5.5,2.9c0,2.1,3.8,1.8,8.2,2.7
		c5,1,10.4,3.2,10.4,9.3c0,6.8-6.7,9.3-13.3,9.2c-6.2-0.1-11.3-2.3-13.9-3.6l2.6-5.9c1.6,0.9,5.8,3.2,11.3,3.1
		c3.1-0.1,5.8-1,5.7-2.7c-0.1-2.1-4.1-2.3-8.6-3.2c-5.1-1.1-10-3-10-8.7c0-6.3,5.9-9.6,13.1-9.5C559.9,807,564,808.5,566,809.3z"/>
	<path class="st0" d="M603.6,825.1l-22.7-0.1c1.2,3.9,5,5.8,9.2,5.7c4.4-0.1,7.6-2.2,9.3-3.6l3.7,5.5c-2.4,2.1-7.1,4.6-13.2,4.6
		c-8.7,0-17-5.1-17-15.2c0-9.4,7.3-15.2,16.1-15.1C600,807.1,605.8,816.5,603.6,825.1z M596.3,818.9c0-2.9-2.6-5.5-7.2-5.5
		c-3.9,0-7.1,1.9-8.2,5.5H596.3z"/>
	<path class="st0" d="M639.4,825.1l-22.7-0.1c1.2,3.9,5,5.8,9.2,5.7c4.4-0.1,7.6-2.2,9.3-3.6l3.7,5.5c-2.4,2.1-7.1,4.6-13.2,4.6
		c-8.7,0-17-5.1-17-15.2c0-9.4,7.3-15.2,16.1-15.1C635.8,807.1,641.6,816.5,639.4,825.1z M632.1,818.9c0-2.9-2.6-5.5-7.2-5.5
		c-3.9,0-7.1,1.9-8.2,5.5H632.1z"/>
	<path class="st0" d="M675.4,853.2h-8.7l7.9-16.4l-13.4-29h8.7l8.9,20.5l9.4-20.5h8.7L675.4,853.2z"/>
	<path class="st0" d="M729.7,822.2c0,10-7.8,15-15.8,15c-8.6,0-15.9-5.5-15.9-15.1c0-8.8,6.8-15.1,15.9-15.1
		C722.4,807.1,729.7,812.7,729.7,822.2z M705.6,822.2c0,5.7,3.9,8.5,8.3,8.5c4.2,0,8.2-2.7,8.2-8.5c0-5.9-4-8.6-8.2-8.6
		C709.4,813.6,705.6,816.6,705.6,822.2z"/>
	<path class="st0" d="M757.2,836.8l-0.4-4c-1.2,1.3-5.1,5-10.5,5c-5.7,0-10.8-4.2-10.8-11.9v-18h7.6v17.7c0,3.7,2.6,5.6,5.6,5.6
		c3.7,0,6.5-3,7.9-5.1v-18.1h7.6v28.9H757.2z"/>
	<path class="st0" d="M780.7,833c0,2.4-1.9,4.2-4.2,4.2c-2.3,0-4.2-1.9-4.2-4.2c0-2.3,1.9-4.3,4.2-4.3S780.7,830.7,780.7,833z
		 M773.3,825.2l-0.8-26.2h8.5l-1,26.2H773.3z"/>
</g>
<path class="st5" d="M711,1048.8H531c-4,0-7.2-3.2-7.2-7.2l0,0c0-4,3.2-7.2,7.2-7.2h180c4,0,7.2,3.2,7.2,7.2l0,0
	C718.3,1045.6,715,1048.8,711,1048.8z"/>
<path class="st6" d="M801.4,1093.4H440.7c-43.8,0-79.3-35.5-79.3-79.3V225.6c0-43.8,35.5-79.3,79.3-79.3h360.7
	c43.8,0,79.3,35.5,79.3,79.3V1014C880.7,1057.8,845.2,1093.4,801.4,1093.4z"/>
<path class="st5" d="M710.4,181.6H529.2c-10.1,0-18.3-8.2-18.3-18.3v-17h220.3v14.5C731.2,172.3,721.9,181.6,710.4,181.6z"/>
<g>
</g>
<g>
</g>
<g>
</g>
<g>
</g>
<g>
</g>
<g>
</g>
</svg>
