<?xml version="1.0" encoding="utf-8"?>
<!-- Generator: Adobe Illustrator 24.2.1, SVG Export Plug-In . SVG Version: 6.00 Build 0)  -->
<svg version="1.1" id="Layer_1" xmlns="http://www.w3.org/2000/svg" xmlns:xlink="http://www.w3.org/1999/xlink" x="0px" y="0px"
	 width="375.4px" height="98.4px" viewBox="0 0 375.4 98.4" style="enable-background:new 0 0 375.4 98.4;" xml:space="preserve">
<style type="text/css">
	.st0{clip-path:url(#SVGID_2_);}
	.st1{clip-path:url(#SVGID_4_);fill:#D2B786;}
	.st2{clip-path:url(#SVGID_4_);}
	.st3{fill:none;stroke:#C5A587;stroke-miterlimit:10;}
	.st4{clip-path:url(#SVGID_4_);fill:none;stroke:#3FCCB9;stroke-miterlimit:10;}
	.st5{fill:#F7F1EA;}
	.st6{fill:none;}
	.st7{fill:#243444;}
</style>
<g>
	<defs>
		<rect id="SVGID_1_" width="375.4" height="98.4"/>
	</defs>
	<clipPath id="SVGID_2_">
		<use xlink:href="#SVGID_1_"  style="overflow:visible;"/>
	</clipPath>
	<g class="st0">
		<defs>
			<rect id="SVGID_3_" x="-22.8" y="-18.5" width="606.4" height="342.4"/>
		</defs>
		<clipPath id="SVGID_4_">
			<use xlink:href="#SVGID_3_"  style="overflow:visible;"/>
		</clipPath>
		<rect x="-26.5" y="-113.8" class="st1" width="1106.9" height="464.2"/>
		<g class="st2">
			<g>
				<polyline class="st3" points="524.1,-101.9 538.4,-94.7 560.7,-105.2 583.5,-94.7 607.5,-106.8 630.6,-94.7 653.8,-105.6 
					677.1,-94.7 701.2,-107.3 725.2,-94.7 748,-105.2 770.5,-94.7 794.5,-106.7 818.9,-94.7 841.1,-104.9 863.7,-94.7 888.4,-107.3 
					912.4,-94.7 935.6,-107.3 957.1,-94.7 981.8,-107.3 1005.8,-94.7 1028.5,-107.3 1050.9,-94.7 1071.7,-107.3 				"/>
				<polyline class="st3" points="524.1,-90.7 538.4,-83.5 560.7,-94 583.5,-83.5 607.5,-95.6 630.6,-83.5 653.8,-94.4 677.1,-83.5 
					701.2,-96.1 725.2,-83.5 748,-94 770.5,-83.5 794.5,-95.5 818.9,-83.5 841.1,-93.7 863.7,-83.5 888.4,-96.1 912.4,-83.5 
					935.6,-96.1 957.1,-83.5 981.8,-96.1 1005.8,-83.5 1028.5,-96.1 1050.9,-83.5 1071.7,-96.1 				"/>
				<polyline class="st3" points="524.1,-78.2 538.4,-71 560.7,-81.5 583.5,-71 607.5,-83 630.6,-71 653.8,-81.9 677.1,-71 
					701.2,-83.5 725.2,-71 748,-81.5 770.5,-71 794.5,-82.9 818.9,-71 841.1,-81.2 863.7,-71 888.4,-83.5 912.4,-71 935.6,-83.5 
					957.1,-71 981.8,-83.5 1005.8,-71 1028.5,-83.5 1050.9,-71 1071.7,-83.5 				"/>
				<polyline class="st3" points="524.1,-67 538.4,-59.8 560.7,-70.3 583.5,-59.8 607.5,-71.8 630.6,-59.8 653.8,-70.7 677.1,-59.8 
					701.2,-72.3 725.2,-59.8 748,-70.3 770.5,-59.8 794.5,-71.8 818.9,-59.8 841.1,-70 863.7,-59.8 888.4,-72.3 912.4,-59.8 
					935.6,-72.3 957.1,-59.8 981.8,-72.3 1005.8,-59.8 1028.5,-72.3 1050.9,-59.8 1071.7,-72.3 				"/>
				<polyline class="st3" points="524.1,-54.4 538.4,-47.2 560.7,-57.7 583.5,-47.2 607.5,-59.3 630.6,-47.2 653.8,-58.1 
					677.1,-47.2 701.2,-59.8 725.2,-47.2 748,-57.7 770.5,-47.2 794.5,-59.2 818.9,-47.2 841.1,-57.4 863.7,-47.2 888.4,-59.8 
					912.4,-47.2 935.6,-59.8 957.1,-47.2 981.8,-59.8 1005.8,-47.2 1028.5,-59.8 1050.9,-47.2 1071.7,-59.8 				"/>
				<polyline class="st3" points="524.1,-43.2 538.4,-36 560.7,-46.5 583.5,-36 607.5,-48.1 630.6,-36 653.8,-46.9 677.1,-36 
					701.2,-48.6 725.2,-36 748,-46.5 770.5,-36 794.5,-48 818.9,-36 841.1,-46.2 863.7,-36 888.4,-48.6 912.4,-36 935.6,-48.6 
					957.1,-36 981.8,-48.6 1005.8,-36 1028.5,-48.6 1050.9,-36 1071.7,-48.6 				"/>
				<polyline class="st3" points="524.1,-30.7 538.4,-23.5 560.7,-34 583.5,-23.5 607.5,-35.6 630.6,-23.5 653.8,-34.4 677.1,-23.5 
					701.2,-36 725.2,-23.5 748,-33.9 770.5,-23.5 794.5,-35.4 818.9,-23.5 841.1,-33.7 863.7,-23.5 888.4,-36 912.4,-23.5 
					935.6,-36 957.1,-23.5 981.8,-36 1005.8,-23.5 1028.5,-36 1050.9,-23.5 1071.7,-36 				"/>
				<polyline class="st3" points="524.1,-19.5 538.4,-12.3 560.7,-22.8 583.5,-12.3 607.5,-24.4 630.6,-12.3 653.8,-23.2 
					677.1,-12.3 701.2,-24.8 725.2,-12.3 748,-22.8 770.5,-12.3 794.5,-24.2 818.9,-12.3 841.1,-22.4 863.7,-12.3 888.4,-24.8 
					912.4,-12.3 935.6,-24.8 957.1,-12.3 981.8,-24.8 1005.8,-12.3 1028.5,-24.8 1050.9,-12.3 1071.7,-24.8 				"/>
				<polyline class="st3" points="524.1,-6.9 538.4,0.3 560.7,-10.2 583.5,0.3 607.5,-11.8 630.6,0.3 653.8,-10.6 677.1,0.3 
					701.2,-12.3 725.2,0.3 748,-10.2 770.5,0.3 794.5,-11.7 818.9,0.3 841.1,-9.9 863.7,0.3 888.4,-12.3 912.4,0.3 935.6,-12.3 
					957.1,0.3 981.8,-12.3 1005.8,0.3 1028.5,-12.3 1050.9,0.3 1071.7,-12.3 				"/>
				<polyline class="st3" points="524.1,4.3 538.4,11.5 560.7,1 583.5,11.5 607.5,-0.6 630.6,11.5 653.8,0.6 677.1,11.5 701.2,-1.1 
					725.2,11.5 748,1 770.5,11.5 794.5,-0.5 818.9,11.5 841.1,1.3 863.7,11.5 888.4,-1.1 912.4,11.5 935.6,-1.1 957.1,11.5 
					981.8,-1.1 1005.8,11.5 1028.5,-1.1 1050.9,11.5 1071.7,-1.1 				"/>
				<polyline class="st3" points="524.1,16.8 538.4,24 560.7,13.5 583.5,24 607.5,12 630.6,24 653.8,13.1 677.1,24 701.2,11.5 
					725.2,24 748,13.5 770.5,24 794.5,12.1 818.9,24 841.1,13.9 863.7,24 888.4,11.5 912.4,24 935.6,11.5 957.1,24 981.8,11.5 
					1005.8,24 1028.5,11.5 1050.9,24 1071.7,11.5 				"/>
				<polyline class="st3" points="524.1,28 538.4,35.2 560.7,24.7 583.5,35.2 607.5,23.2 630.6,35.2 653.8,24.3 677.1,35.2 
					701.2,22.7 725.2,35.2 748,24.8 770.5,35.2 794.5,23.3 818.9,35.2 841.1,25 863.7,35.2 888.4,22.7 912.4,35.2 935.6,22.7 
					957.1,35.2 981.8,22.7 1005.8,35.2 1028.5,22.7 1050.9,35.2 1071.7,22.7 				"/>
				<polyline class="st3" points="524.1,40.6 538.4,47.8 560.7,37.3 583.5,47.8 607.5,35.7 630.6,47.8 653.8,36.9 677.1,47.8 
					701.2,35.2 725.2,47.8 748,37.3 770.5,47.8 794.5,35.8 818.9,47.8 841.1,37.6 863.7,47.8 888.4,35.2 912.4,47.8 935.6,35.2 
					957.1,47.8 981.8,35.2 1005.8,47.8 1028.5,35.2 1050.9,47.8 1071.7,35.2 				"/>
				<polyline class="st3" points="524.1,51.8 538.4,59 560.7,48.5 583.5,59 607.5,46.9 630.6,59 653.8,48.1 677.1,59 701.2,46.4 
					725.2,59 748,48.5 770.5,59 794.5,47 818.9,59 841.1,48.8 863.7,59 888.4,46.4 912.4,59 935.6,46.4 957.1,59 981.8,46.4 
					1005.8,59 1028.5,46.4 1050.9,59 1071.7,46.4 				"/>
				<polyline class="st3" points="524.1,64.3 538.4,71.5 560.7,61 583.5,71.5 607.5,59.5 630.6,71.5 653.8,60.6 677.1,71.5 
					701.2,59 725.2,71.5 748,61.1 770.5,71.5 794.5,59.6 818.9,71.5 841.1,61.4 863.7,71.5 888.4,59 912.4,71.5 935.6,59 
					957.1,71.5 981.8,59 1005.8,71.5 1028.5,59 1050.9,71.5 1071.7,59 				"/>
				<polyline class="st3" points="524.1,75.5 538.4,82.7 560.7,72.2 583.5,82.7 607.5,70.7 630.6,82.7 653.8,71.8 677.1,82.7 
					701.2,70.2 725.2,82.7 748,72.3 770.5,82.7 794.5,70.8 818.9,82.7 841.1,72.6 863.7,82.7 888.4,70.2 912.4,82.7 935.6,70.2 
					957.1,82.7 981.8,70.2 1005.8,82.7 1028.5,70.2 1050.9,82.7 1071.7,70.2 				"/>
				<polyline class="st3" points="524.1,88.1 538.4,95.3 560.7,84.8 583.5,95.3 607.5,83.2 630.6,95.3 653.8,84.4 677.1,95.3 
					701.2,82.7 725.2,95.3 748,84.8 770.5,95.3 794.5,83.3 818.9,95.3 841.1,85.1 863.7,95.3 888.4,82.7 912.4,95.3 935.6,82.7 
					957.1,95.3 981.8,82.7 1005.8,95.3 1028.5,82.7 1050.9,95.3 1071.7,82.7 				"/>
				<polyline class="st3" points="524.1,99.3 538.4,106.5 560.7,96 583.5,106.5 607.5,94.4 630.6,106.5 653.8,95.6 677.1,106.5 
					701.2,93.9 725.2,106.5 748,96 770.5,106.5 794.5,94.5 818.9,106.5 841.1,96.3 863.7,106.5 888.4,93.9 912.4,106.5 935.6,93.9 
					957.1,106.5 981.8,93.9 1005.8,106.5 1028.5,93.9 1050.9,106.5 1071.7,93.9 				"/>
				<polyline class="st3" points="524.1,111.9 538.4,119.1 560.7,108.5 583.5,119.1 607.5,107 630.6,119.1 653.8,108.2 677.1,119.1 
					701.2,106.5 725.2,119.1 748,108.6 770.5,119.1 794.5,107.1 818.9,119.1 841.1,108.9 863.7,119.1 888.4,106.5 912.4,119.1 
					935.6,106.5 957.1,119.1 981.8,106.5 1005.8,119.1 1028.5,106.5 1050.9,119.1 1071.7,106.5 				"/>
				<polyline class="st3" points="524.1,123.1 538.4,130.3 560.7,119.7 583.5,130.3 607.5,118.2 630.6,130.3 653.8,119.3 
					677.1,130.3 701.2,117.7 725.2,130.3 748,119.8 770.5,130.3 794.5,118.3 818.9,130.3 841.1,120.1 863.7,130.3 888.4,117.7 
					912.4,130.3 935.6,117.7 957.1,130.3 981.8,117.7 1005.8,130.3 1028.5,117.7 1050.9,130.3 1071.7,117.7 				"/>
				<polyline class="st3" points="524.1,135.6 538.4,142.8 560.7,132.3 583.5,142.8 607.5,130.7 630.6,142.8 653.8,131.9 
					677.1,142.8 701.2,130.3 725.2,142.8 748,132.3 770.5,142.8 794.5,130.8 818.9,142.8 841.1,132.6 863.7,142.8 888.4,130.3 
					912.4,142.8 935.6,130.3 957.1,142.8 981.8,130.3 1005.8,142.8 1028.5,130.3 1050.9,142.8 1071.7,130.3 				"/>
				<polyline class="st3" points="524.1,146.8 538.4,154 560.7,143.5 583.5,154 607.5,141.9 630.6,154 653.8,143.1 677.1,154 
					701.2,141.4 725.2,154 748,143.5 770.5,154 794.5,142 818.9,154 841.1,143.8 863.7,154 888.4,141.4 912.4,154 935.6,141.4 
					957.1,154 981.8,141.4 1005.8,154 1028.5,141.4 1050.9,154 1071.7,141.4 				"/>
				<polyline class="st3" points="524.1,159.3 538.4,166.6 560.7,156 583.5,166.6 607.5,154.5 630.6,166.6 653.8,155.6 677.1,166.6 
					701.2,154 725.2,166.6 748,156.1 770.5,166.6 794.5,154.6 818.9,166.6 841.1,156.4 863.7,166.6 888.4,154 912.4,166.6 
					935.6,154 957.1,166.6 981.8,154 1005.8,166.6 1028.5,154 1050.9,166.6 1071.7,154 				"/>
				<polyline class="st3" points="524.1,170.5 538.4,177.7 560.7,167.2 583.5,177.7 607.5,165.7 630.6,177.7 653.8,166.9 
					677.1,177.7 701.2,165.2 725.2,177.7 748,167.3 770.5,177.7 794.5,165.8 818.9,177.7 841.1,167.6 863.7,177.7 888.4,165.2 
					912.4,177.7 935.6,165.2 957.1,177.7 981.8,165.2 1005.8,177.7 1028.5,165.2 1050.9,177.7 1071.7,165.2 				"/>
				<polyline class="st3" points="524.1,183.1 538.4,190.3 560.7,179.8 583.5,190.3 607.5,178.2 630.6,190.3 653.8,179.4 
					677.1,190.3 701.2,177.7 725.2,190.3 748,179.8 770.5,190.3 794.5,178.4 818.9,190.3 841.1,180.1 863.7,190.3 888.4,177.7 
					912.4,190.3 935.6,177.7 957.1,190.3 981.8,177.7 1005.8,190.3 1028.5,177.7 1050.9,190.3 1071.7,177.7 				"/>
				<polyline class="st3" points="524.1,194.3 538.4,201.5 560.7,191 583.5,201.5 607.5,189.4 630.6,201.5 653.8,190.6 677.1,201.5 
					701.2,189 725.2,201.5 748,191 770.5,201.5 794.5,189.6 818.9,201.5 841.1,191.3 863.7,201.5 888.4,189 912.4,201.5 935.6,189 
					957.1,201.5 981.8,189 1005.8,201.5 1028.5,189 1050.9,201.5 1071.7,189 				"/>
				<polyline class="st3" points="524.1,206.9 538.4,214.1 560.7,203.6 583.5,214.1 607.5,202 630.6,214.1 653.8,203.2 677.1,214.1 
					701.2,201.5 725.2,214.1 748,203.6 770.5,214.1 794.5,202.1 818.9,214.1 841.1,203.9 863.7,214.1 888.4,201.5 912.4,214.1 
					935.6,201.5 957.1,214.1 981.8,201.5 1005.8,214.1 1028.5,201.5 1050.9,214.1 1071.7,201.5 				"/>
				<polyline class="st3" points="524.1,218.1 538.4,225.3 560.7,214.8 583.5,225.3 607.5,213.2 630.6,225.3 653.8,214.3 
					677.1,225.3 701.2,212.7 725.2,225.3 748,214.8 770.5,225.3 794.5,213.3 818.9,225.3 841.1,215.1 863.7,225.3 888.4,212.7 
					912.4,225.3 935.6,212.7 957.1,225.3 981.8,212.7 1005.8,225.3 1028.5,212.7 1050.9,225.3 1071.7,212.7 				"/>
				<polyline class="st3" points="524.1,230.6 538.4,237.8 560.7,227.3 583.5,237.8 607.5,225.8 630.6,237.8 653.8,226.9 
					677.1,237.8 701.2,225.3 725.2,237.8 748,227.3 770.5,237.8 794.5,225.9 818.9,237.8 841.1,227.6 863.7,237.8 888.4,225.3 
					912.4,237.8 935.6,225.3 957.1,237.8 981.8,225.3 1005.8,237.8 1028.5,225.3 1050.9,237.8 1071.7,225.3 				"/>
				<polyline class="st3" points="524.1,241.8 538.4,249 560.7,238.5 583.5,249 607.5,236.9 630.6,249 653.8,238.1 677.1,249 
					701.2,236.5 725.2,249 748,238.5 770.5,249 794.5,237 818.9,249 841.1,238.8 863.7,249 888.4,236.5 912.4,249 935.6,236.5 
					957.1,249 981.8,236.5 1005.8,249 1028.5,236.5 1050.9,249 1071.7,236.5 				"/>
				<polyline class="st3" points="524.1,254.4 538.4,261.6 560.7,251 583.5,261.6 607.5,249.5 630.6,261.6 653.8,250.7 677.1,261.6 
					701.2,249 725.2,261.6 748,251.1 770.5,261.6 794.5,249.6 818.9,261.6 841.1,251.4 863.7,261.6 888.4,249 912.4,261.6 
					935.6,249 957.1,261.6 981.8,249 1005.8,261.6 1028.5,249 1050.9,261.6 1071.7,249 				"/>
				<polyline class="st3" points="524.1,265.6 538.4,272.8 560.7,262.3 583.5,272.8 607.5,260.7 630.6,272.8 653.8,261.9 
					677.1,272.8 701.2,260.2 725.2,272.8 748,262.3 770.5,272.8 794.5,260.8 818.9,272.8 841.1,262.6 863.7,272.8 888.4,260.2 
					912.4,272.8 935.6,260.2 957.1,272.8 981.8,260.2 1005.8,272.8 1028.5,260.2 1050.9,272.8 1071.7,260.2 				"/>
				<polyline class="st3" points="524.1,278.1 538.4,285.3 560.7,274.8 583.5,285.3 607.5,273.2 630.6,285.3 653.8,274.4 
					677.1,285.3 701.2,272.8 725.2,285.3 748,274.9 770.5,285.3 794.5,273.4 818.9,285.3 841.1,275.1 863.7,285.3 888.4,272.8 
					912.4,285.3 935.6,272.8 957.1,285.3 981.8,272.8 1005.8,285.3 1028.5,272.8 1050.9,285.3 1071.7,272.8 				"/>
				<polyline class="st3" points="524.1,289.3 538.4,296.5 560.7,286 583.5,296.5 607.5,284.4 630.6,296.5 653.8,285.6 677.1,296.5 
					701.2,284 725.2,296.5 748,286 770.5,296.5 794.5,284.6 818.9,296.5 841.1,286.4 863.7,296.5 888.4,284 912.4,296.5 935.6,284 
					957.1,296.5 981.8,284 1005.8,296.5 1028.5,284 1050.9,296.5 1071.7,284 				"/>
				<polyline class="st3" points="524.1,301.9 538.4,309.1 560.7,298.6 583.5,309.1 607.5,297 630.6,309.1 653.8,298.2 677.1,309.1 
					701.2,296.5 725.2,309.1 748,298.6 770.5,309.1 794.5,297.1 818.9,309.1 841.1,298.9 863.7,309.1 888.4,296.5 912.4,309.1 
					935.6,296.5 957.1,309.1 981.8,296.5 1005.8,309.1 1028.5,296.5 1050.9,309.1 1071.7,296.5 				"/>
				<polyline class="st3" points="524.1,313.1 538.4,320.3 560.7,309.8 583.5,320.3 607.5,308.2 630.6,320.3 653.8,309.4 
					677.1,320.3 701.2,307.7 725.2,320.3 748,309.8 770.5,320.3 794.5,308.3 818.9,320.3 841.1,310.1 863.7,320.3 888.4,307.7 
					912.4,320.3 935.6,307.7 957.1,320.3 981.8,307.7 1005.8,320.3 1028.5,307.7 1050.9,320.3 1071.7,307.7 				"/>
				<polyline class="st3" points="524.1,325.6 538.4,332.8 560.7,322.3 583.5,332.8 607.5,320.8 630.6,332.8 653.8,321.9 
					677.1,332.8 701.2,320.3 725.2,332.8 748,322.3 770.5,332.8 794.5,320.9 818.9,332.8 841.1,322.7 863.7,332.8 888.4,320.3 
					912.4,332.8 935.6,320.3 957.1,332.8 981.8,320.3 1005.8,332.8 1028.5,320.3 1050.9,332.8 1071.7,320.3 				"/>
				<polyline class="st3" points="524.1,336.8 538.4,344 560.7,333.5 583.5,344 607.5,332 630.6,344 653.8,333.1 677.1,344 
					701.2,331.5 725.2,344 748,333.6 770.5,344 794.5,332.1 818.9,344 841.1,333.8 863.7,344 888.4,331.5 912.4,344 935.6,331.5 
					957.1,344 981.8,331.5 1005.8,344 1028.5,331.5 1050.9,344 1071.7,331.5 				"/>
			</g>
			<g>
				<polyline class="st3" points="524.8,-101.9 510.5,-94.7 488.1,-105.2 465.4,-94.7 441.4,-106.8 418.2,-94.7 395.1,-105.6 
					371.8,-94.7 347.7,-107.3 323.7,-94.7 300.9,-105.2 278.3,-94.7 254.4,-106.7 230,-94.7 207.8,-104.9 185.2,-94.7 160.5,-107.3 
					136.5,-94.7 113.2,-107.3 91.8,-94.7 67.1,-107.3 43.1,-94.7 20.4,-107.3 -2,-94.7 -22.8,-107.3 				"/>
				<polyline class="st3" points="524.8,-90.7 510.5,-83.5 488.1,-94 465.4,-83.5 441.4,-95.6 418.2,-83.5 395.1,-94.4 371.8,-83.5 
					347.7,-96.1 323.7,-83.5 300.9,-94 278.3,-83.5 254.4,-95.5 230,-83.5 207.8,-93.7 185.2,-83.5 160.5,-96.1 136.5,-83.5 
					113.2,-96.1 91.8,-83.5 67.1,-96.1 43.1,-83.5 20.4,-96.1 -2,-83.5 -22.8,-96.1 				"/>
				<polyline class="st3" points="524.8,-78.2 510.5,-71 488.1,-81.5 465.4,-71 441.4,-83 418.2,-71 395.1,-81.9 371.8,-71 
					347.7,-83.5 323.7,-71 300.9,-81.5 278.3,-71 254.4,-82.9 230,-71 207.8,-81.2 185.2,-71 160.5,-83.5 136.5,-71 113.2,-83.5 
					91.8,-71 67.1,-83.5 43.1,-71 20.4,-83.5 -2,-71 -22.8,-83.5 				"/>
				<polyline class="st3" points="524.8,-67 510.5,-59.8 488.1,-70.3 465.4,-59.8 441.4,-71.8 418.2,-59.8 395.1,-70.7 371.8,-59.8 
					347.7,-72.3 323.7,-59.8 300.9,-70.3 278.3,-59.8 254.4,-71.8 230,-59.8 207.8,-70 185.2,-59.8 160.5,-72.3 136.5,-59.8 
					113.2,-72.3 91.8,-59.8 67.1,-72.3 43.1,-59.8 20.4,-72.3 -2,-59.8 -22.8,-72.3 				"/>
				<polyline class="st3" points="524.8,-54.4 510.5,-47.2 488.1,-57.7 465.4,-47.2 441.4,-59.3 418.2,-47.2 395.1,-58.1 
					371.8,-47.2 347.7,-59.8 323.7,-47.2 300.9,-57.7 278.3,-47.2 254.4,-59.2 230,-47.2 207.8,-57.4 185.2,-47.2 160.5,-59.8 
					136.5,-47.2 113.2,-59.8 91.8,-47.2 67.1,-59.8 43.1,-47.2 20.4,-59.8 -2,-47.2 -22.8,-59.8 				"/>
				<polyline class="st3" points="524.8,-43.2 510.5,-36 488.1,-46.5 465.4,-36 441.4,-48.1 418.2,-36 395.1,-46.9 371.8,-36 
					347.7,-48.6 323.7,-36 300.9,-46.5 278.3,-36 254.4,-48 230,-36 207.8,-46.2 185.2,-36 160.5,-48.6 136.5,-36 113.2,-48.6 
					91.8,-36 67.1,-48.6 43.1,-36 20.4,-48.6 -2,-36 -22.8,-48.6 				"/>
				<polyline class="st3" points="524.8,-30.7 510.5,-23.5 488.1,-34 465.4,-23.5 441.4,-35.6 418.2,-23.5 395.1,-34.4 371.8,-23.5 
					347.7,-36 323.7,-23.5 300.9,-33.9 278.3,-23.5 254.4,-35.4 230,-23.5 207.8,-33.7 185.2,-23.5 160.5,-36 136.5,-23.5 
					113.2,-36 91.8,-23.5 67.1,-36 43.1,-23.5 20.4,-36 -2,-23.5 -22.8,-36 				"/>
				<polyline class="st3" points="524.8,-19.5 510.5,-12.3 488.1,-22.8 465.4,-12.3 441.4,-24.4 418.2,-12.3 395.1,-23.2 
					371.8,-12.3 347.7,-24.8 323.7,-12.3 300.9,-22.8 278.3,-12.3 254.4,-24.2 230,-12.3 207.8,-22.4 185.2,-12.3 160.5,-24.8 
					136.5,-12.3 113.2,-24.8 91.8,-12.3 67.1,-24.8 43.1,-12.3 20.4,-24.8 -2,-12.3 -22.8,-24.8 				"/>
				<polyline class="st3" points="524.8,-6.9 510.5,0.3 488.1,-10.2 465.4,0.3 441.4,-11.8 418.2,0.3 395.1,-10.6 371.8,0.3 
					347.7,-12.3 323.7,0.3 300.9,-10.2 278.3,0.3 254.4,-11.7 230,0.3 207.8,-9.9 185.2,0.3 160.5,-12.3 136.5,0.3 113.2,-12.3 
					91.8,0.3 67.1,-12.3 43.1,0.3 20.4,-12.3 -2,0.3 -22.8,-12.3 				"/>
				<polyline class="st3" points="524.8,4.3 510.5,11.5 488.1,1 465.4,11.5 441.4,-0.6 418.2,11.5 395.1,0.6 371.8,11.5 347.7,-1.1 
					323.7,11.5 300.9,1 278.3,11.5 254.4,-0.5 230,11.5 207.8,1.3 185.2,11.5 160.5,-1.1 136.5,11.5 113.2,-1.1 91.8,11.5 
					67.1,-1.1 43.1,11.5 20.4,-1.1 -2,11.5 -22.8,-1.1 				"/>
				<polyline class="st3" points="524.8,16.8 510.5,24 488.1,13.5 465.4,24 441.4,12 418.2,24 395.1,13.1 371.8,24 347.7,11.5 
					323.7,24 300.9,13.5 278.3,24 254.4,12.1 230,24 207.8,13.9 185.2,24 160.5,11.5 136.5,24 113.2,11.5 91.8,24 67.1,11.5 
					43.1,24 20.4,11.5 -2,24 -22.8,11.5 				"/>
				<polyline class="st3" points="524.8,28 510.5,35.2 488.1,24.7 465.4,35.2 441.4,23.2 418.2,35.2 395.1,24.3 371.8,35.2 
					347.7,22.7 323.7,35.2 300.9,24.8 278.3,35.2 254.4,23.3 230,35.2 207.8,25 185.2,35.2 160.5,22.7 136.5,35.2 113.2,22.7 
					91.8,35.2 67.1,22.7 43.1,35.2 20.4,22.7 -2,35.2 -22.8,22.7 				"/>
				<polyline class="st3" points="524.8,40.6 510.5,47.8 488.1,37.3 465.4,47.8 441.4,35.7 418.2,47.8 395.1,36.9 371.8,47.8 
					347.7,35.2 323.7,47.8 300.9,37.3 278.3,47.8 254.4,35.8 230,47.8 207.8,37.6 185.2,47.8 160.5,35.2 136.5,47.8 113.2,35.2 
					91.8,47.8 67.1,35.2 43.1,47.8 20.4,35.2 -2,47.8 -22.8,35.2 				"/>
				<polyline class="st3" points="524.8,51.8 510.5,59 488.1,48.5 465.4,59 441.4,46.9 418.2,59 395.1,48.1 371.8,59 347.7,46.4 
					323.7,59 300.9,48.5 278.3,59 254.4,47 230,59 207.8,48.8 185.2,59 160.5,46.4 136.5,59 113.2,46.4 91.8,59 67.1,46.4 43.1,59 
					20.4,46.4 -2,59 -22.8,46.4 				"/>
				<polyline class="st3" points="524.8,64.3 510.5,71.5 488.1,61 465.4,71.5 441.4,59.5 418.2,71.5 395.1,60.6 371.8,71.5 
					347.7,59 323.7,71.5 300.9,61.1 278.3,71.5 254.4,59.6 230,71.5 207.8,61.4 185.2,71.5 160.5,59 136.5,71.5 113.2,59 91.8,71.5 
					67.1,59 43.1,71.5 20.4,59 -2,71.5 -22.8,59 				"/>
				<polyline class="st3" points="524.8,75.5 510.5,82.7 488.1,72.2 465.4,82.7 441.4,70.7 418.2,82.7 395.1,71.8 371.8,82.7 
					347.7,70.2 323.7,82.7 300.9,72.3 278.3,82.7 254.4,70.8 230,82.7 207.8,72.6 185.2,82.7 160.5,70.2 136.5,82.7 113.2,70.2 
					91.8,82.7 67.1,70.2 43.1,82.7 20.4,70.2 -2,82.7 -22.8,70.2 				"/>
				<polyline class="st3" points="524.8,88.1 510.5,95.3 488.1,84.8 465.4,95.3 441.4,83.2 418.2,95.3 395.1,84.4 371.8,95.3 
					347.7,82.7 323.7,95.3 300.9,84.8 278.3,95.3 254.4,83.3 230,95.3 207.8,85.1 185.2,95.3 160.5,82.7 136.5,95.3 113.2,82.7 
					91.8,95.3 67.1,82.7 43.1,95.3 20.4,82.7 -2,95.3 -22.8,82.7 				"/>
				<polyline class="st3" points="524.8,99.3 510.5,106.5 488.1,96 465.4,106.5 441.4,94.4 418.2,106.5 395.1,95.6 371.8,106.5 
					347.7,93.9 323.7,106.5 300.9,96 278.3,106.5 254.4,94.5 230,106.5 207.8,96.3 185.2,106.5 160.5,93.9 136.5,106.5 113.2,93.9 
					91.8,106.5 67.1,93.9 43.1,106.5 20.4,93.9 -2,106.5 -22.8,93.9 				"/>
				<polyline class="st3" points="524.8,111.9 510.5,119.1 488.1,108.5 465.4,119.1 441.4,107 418.2,119.1 395.1,108.2 371.8,119.1 
					347.7,106.5 323.7,119.1 300.9,108.6 278.3,119.1 254.4,107.1 230,119.1 207.8,108.9 185.2,119.1 160.5,106.5 136.5,119.1 
					113.2,106.5 91.8,119.1 67.1,106.5 43.1,119.1 20.4,106.5 -2,119.1 -22.8,106.5 				"/>
				<polyline class="st3" points="524.8,123.1 510.5,130.3 488.1,119.7 465.4,130.3 441.4,118.2 418.2,130.3 395.1,119.3 
					371.8,130.3 347.7,117.7 323.7,130.3 300.9,119.8 278.3,130.3 254.4,118.3 230,130.3 207.8,120.1 185.2,130.3 160.5,117.7 
					136.5,130.3 113.2,117.7 91.8,130.3 67.1,117.7 43.1,130.3 20.4,117.7 -2,130.3 -22.8,117.7 				"/>
				<polyline class="st3" points="524.8,135.6 510.5,142.8 488.1,132.3 465.4,142.8 441.4,130.7 418.2,142.8 395.1,131.9 
					371.8,142.8 347.7,130.3 323.7,142.8 300.9,132.3 278.3,142.8 254.4,130.8 230,142.8 207.8,132.6 185.2,142.8 160.5,130.3 
					136.5,142.8 113.2,130.3 91.8,142.8 67.1,130.3 43.1,142.8 20.4,130.3 -2,142.8 -22.8,130.3 				"/>
				<polyline class="st3" points="524.8,146.8 510.5,154 488.1,143.5 465.4,154 441.4,141.9 418.2,154 395.1,143.1 371.8,154 
					347.7,141.4 323.7,154 300.9,143.5 278.3,154 254.4,142 230,154 207.8,143.8 185.2,154 160.5,141.4 136.5,154 113.2,141.4 
					91.8,154 67.1,141.4 43.1,154 20.4,141.4 -2,154 -22.8,141.4 				"/>
				<polyline class="st3" points="524.8,159.3 510.5,166.6 488.1,156 465.4,166.6 441.4,154.5 418.2,166.6 395.1,155.6 371.8,166.6 
					347.7,154 323.7,166.6 300.9,156.1 278.3,166.6 254.4,154.6 230,166.6 207.8,156.4 185.2,166.6 160.5,154 136.5,166.6 
					113.2,154 91.8,166.6 67.1,154 43.1,166.6 20.4,154 -2,166.6 -22.8,154 				"/>
				<polyline class="st3" points="524.8,170.5 510.5,177.7 488.1,167.2 465.4,177.7 441.4,165.7 418.2,177.7 395.1,166.9 
					371.8,177.7 347.7,165.2 323.7,177.7 300.9,167.3 278.3,177.7 254.4,165.8 230,177.7 207.8,167.6 185.2,177.7 160.5,165.2 
					136.5,177.7 113.2,165.2 91.8,177.7 67.1,165.2 43.1,177.7 20.4,165.2 -2,177.7 -22.8,165.2 				"/>
				<polyline class="st3" points="524.8,183.1 510.5,190.3 488.1,179.8 465.4,190.3 441.4,178.2 418.2,190.3 395.1,179.4 
					371.8,190.3 347.7,177.7 323.7,190.3 300.9,179.8 278.3,190.3 254.4,178.4 230,190.3 207.8,180.1 185.2,190.3 160.5,177.7 
					136.5,190.3 113.2,177.7 91.8,190.3 67.1,177.7 43.1,190.3 20.4,177.7 -2,190.3 -22.8,177.7 				"/>
				<polyline class="st3" points="524.8,194.3 510.5,201.5 488.1,191 465.4,201.5 441.4,189.4 418.2,201.5 395.1,190.6 371.8,201.5 
					347.7,189 323.7,201.5 300.9,191 278.3,201.5 254.4,189.6 230,201.5 207.8,191.3 185.2,201.5 160.5,189 136.5,201.5 113.2,189 
					91.8,201.5 67.1,189 43.1,201.5 20.4,189 -2,201.5 -22.8,189 				"/>
				<polyline class="st3" points="524.8,206.9 510.5,214.1 488.1,203.6 465.4,214.1 441.4,202 418.2,214.1 395.1,203.2 371.8,214.1 
					347.7,201.5 323.7,214.1 300.9,203.6 278.3,214.1 254.4,202.1 230,214.1 207.8,203.9 185.2,214.1 160.5,201.5 136.5,214.1 
					113.2,201.5 91.8,214.1 67.1,201.5 43.1,214.1 20.4,201.5 -2,214.1 -22.8,201.5 				"/>
				<polyline class="st3" points="524.8,218.1 510.5,225.3 488.1,214.8 465.4,225.3 441.4,213.2 418.2,225.3 395.1,214.3 
					371.8,225.3 347.7,212.7 323.7,225.3 300.9,214.8 278.3,225.3 254.4,213.3 230,225.3 207.8,215.1 185.2,225.3 160.5,212.7 
					136.5,225.3 113.2,212.7 91.8,225.3 67.1,212.7 43.1,225.3 20.4,212.7 -2,225.3 -22.8,212.7 				"/>
				<polyline class="st3" points="524.8,230.6 510.5,237.8 488.1,227.3 465.4,237.8 441.4,225.8 418.2,237.8 395.1,226.9 
					371.8,237.8 347.7,225.3 323.7,237.8 300.9,227.3 278.3,237.8 254.4,225.9 230,237.8 207.8,227.6 185.2,237.8 160.5,225.3 
					136.5,237.8 113.2,225.3 91.8,237.8 67.1,225.3 43.1,237.8 20.4,225.3 -2,237.8 -22.8,225.3 				"/>
				<polyline class="st3" points="524.8,241.8 510.5,249 488.1,238.5 465.4,249 441.4,236.9 418.2,249 395.1,238.1 371.8,249 
					347.7,236.5 323.7,249 300.9,238.5 278.3,249 254.4,237 230,249 207.8,238.8 185.2,249 160.5,236.5 136.5,249 113.2,236.5 
					91.8,249 67.1,236.5 43.1,249 20.4,236.5 -2,249 -22.8,236.5 				"/>
				<polyline class="st3" points="524.8,254.4 510.5,261.6 488.1,251 465.4,261.6 441.4,249.5 418.2,261.6 395.1,250.7 371.8,261.6 
					347.7,249 323.7,261.6 300.9,251.1 278.3,261.6 254.4,249.6 230,261.6 207.8,251.4 185.2,261.6 160.5,249 136.5,261.6 
					113.2,249 91.8,261.6 67.1,249 43.1,261.6 20.4,249 -2,261.6 -22.8,249 				"/>
				<polyline class="st3" points="524.8,265.6 510.5,272.8 488.1,262.3 465.4,272.8 441.4,260.7 418.2,272.8 395.1,261.9 
					371.8,272.8 347.7,260.2 323.7,272.8 300.9,262.3 278.3,272.8 254.4,260.8 230,272.8 207.8,262.6 185.2,272.8 160.5,260.2 
					136.5,272.8 113.2,260.2 91.8,272.8 67.1,260.2 43.1,272.8 20.4,260.2 -2,272.8 -22.8,260.2 				"/>
				<polyline class="st3" points="524.8,278.1 510.5,285.3 488.1,274.8 465.4,285.3 441.4,273.2 418.2,285.3 395.1,274.4 
					371.8,285.3 347.7,272.8 323.7,285.3 300.9,274.9 278.3,285.3 254.4,273.4 230,285.3 207.8,275.1 185.2,285.3 160.5,272.8 
					136.5,285.3 113.2,272.8 91.8,285.3 67.1,272.8 43.1,285.3 20.4,272.8 -2,285.3 -22.8,272.8 				"/>
				<polyline class="st3" points="524.8,289.3 510.5,296.5 488.1,286 465.4,296.5 441.4,284.4 418.2,296.5 395.1,285.6 371.8,296.5 
					347.7,284 323.7,296.5 300.9,286 278.3,296.5 254.4,284.6 230,296.5 207.8,286.4 185.2,296.5 160.5,284 136.5,296.5 113.2,284 
					91.8,296.5 67.1,284 43.1,296.5 20.4,284 -2,296.5 -22.8,284 				"/>
				<polyline class="st3" points="524.8,301.9 510.5,309.1 488.1,298.6 465.4,309.1 441.4,297 418.2,309.1 395.1,298.2 371.8,309.1 
					347.7,296.5 323.7,309.1 300.9,298.6 278.3,309.1 254.4,297.1 230,309.1 207.8,298.9 185.2,309.1 160.5,296.5 136.5,309.1 
					113.2,296.5 91.8,309.1 67.1,296.5 43.1,309.1 20.4,296.5 -2,309.1 -22.8,296.5 				"/>
				<polyline class="st3" points="524.8,313.1 510.5,320.3 488.1,309.8 465.4,320.3 441.4,308.2 418.2,320.3 395.1,309.4 
					371.8,320.3 347.7,307.7 323.7,320.3 300.9,309.8 278.3,320.3 254.4,308.3 230,320.3 207.8,310.1 185.2,320.3 160.5,307.7 
					136.5,320.3 113.2,307.7 91.8,320.3 67.1,307.7 43.1,320.3 20.4,307.7 -2,320.3 -22.8,307.7 				"/>
				<polyline class="st3" points="524.8,325.6 510.5,332.8 488.1,322.3 465.4,332.8 441.4,320.8 418.2,332.8 395.1,321.9 
					371.8,332.8 347.7,320.3 323.7,332.8 300.9,322.3 278.3,332.8 254.4,320.9 230,332.8 207.8,322.7 185.2,332.8 160.5,320.3 
					136.5,332.8 113.2,320.3 91.8,332.8 67.1,320.3 43.1,332.8 20.4,320.3 -2,332.8 -22.8,320.3 				"/>
				<polyline class="st3" points="524.8,336.8 510.5,344 488.1,333.5 465.4,344 441.4,332 418.2,344 395.1,333.1 371.8,344 
					347.7,331.5 323.7,344 300.9,333.6 278.3,344 254.4,332.1 230,344 207.8,333.8 185.2,344 160.5,331.5 136.5,344 113.2,331.5 
					91.8,344 67.1,331.5 43.1,344 20.4,331.5 -2,344 -22.8,331.5 				"/>
			</g>
		</g>
		<rect x="-22.8" y="-18.5" class="st4" width="604.9" height="345.1"/>
		<use xlink:href="#SVGID_3_"  style="overflow:visible;fill:none;stroke:#3FCCB9;stroke-miterlimit:10;"/>
	</g>
</g>
<rect x="25.8" y="17.8" class="st5" width="323.7" height="62.7"/>
<g>
	<rect x="24.9" y="23.4" class="st6" width="315" height="62.3"/>
	<path class="st7" d="M108.7,41.5l-4-11.2l-3.8,11.2h-4.2l-6-17.5h4.4l3.7,11.7l4-11.7h3.7l4.1,11.7l3.5-11.7h4.5l-5.7,17.5H108.7z"
		/>
	<path class="st7" d="M133.1,35.9H123c0.5,1.6,2,2.3,3.8,2.3c2,0,3.5-1,4.3-1.6l1.8,2.9c-1.1,0.9-3.4,2.1-6.3,2.1
		c-4.1,0-8.1-2.3-8.1-7.1c0-4.4,3.4-7,7.6-6.9C131.6,27.7,134.2,32.1,133.1,35.9z M129.2,33c0-1.1-1.1-2.1-2.9-2.1
		c-1.6,0-2.8,0.8-3.2,2.1H129.2z"/>
	<path class="st7" d="M156.7,29.6l-1.9,3.2c-0.8-0.9-2-1.5-3.4-1.5c-2.2,0-3.8,1.6-3.8,3.5c0,2,1.6,3.5,3.7,3.5
		c1.5,0,2.6-0.7,3.4-1.5l2,3c-1.1,0.9-3.1,2-5.7,2c-3.9,0-7.6-2.5-7.6-7c0-4.5,3.7-7.1,7.7-7.1C153.5,27.6,155.4,28.6,156.7,29.6z"
		/>
	<path class="st7" d="M172.4,41.5h-4l-0.1-1.5c-0.8,0.9-2.1,1.7-3.9,1.7c-3.3,0-6.4-2.7-6.4-7.1c0-4.3,3-6.7,6.2-6.7
		c1.9,0,3.3,0.9,4.1,1.8l0.1-1.6h4.1V41.5z M162,34.6c0,2.1,1.4,3.5,3.3,3.5c1.2,0,2.1-0.5,2.8-1.3l0-4.1c-0.7-0.9-1.8-1.5-2.9-1.5
		C163.6,31.2,162,32.4,162,34.6z"/>
	<path class="st7" d="M189.3,33.7v7.8H185l0-7.3c0-1.7-1-2.8-2.4-2.8c-1.4,0-2.6,1-3.3,2v8.1h-4.2V28h4l0.1,2
		c1.1-1.1,2.6-2.3,4.6-2.3C186.7,27.8,189.3,29.6,189.3,33.7z"/>
	<path class="st7" d="M193.6,22.3c0.4,1.9-0.8,3.8-2.9,4.4l-0.2-1.2c0.5-0.2,1-0.8,1-1.5c-0.8,0.4-2-0.1-2.2-1.2
		c-0.2-1.1,0.5-2.1,1.6-2.4C192.1,20.1,193.3,20.8,193.6,22.3z"/>
	<path class="st7" d="M204.6,28v3.6h-3.8v4.2c0,1.6,1,2.2,2.1,2.2c0.9,0,1.6-0.3,2.2-0.6l1.2,3.1c-0.8,0.5-2.3,1.1-4.2,1.1
		c-3.3,0-5.5-2.3-5.5-5.4v-4.7h-2.4V28h2.4V24h4.2V28H204.6z"/>
	<path class="st7" d="M228.5,41.5l-2.5-7.6l-2.4,7.6h-4.4L214.8,28h4.3l2.3,8.5l2.8-8.5h3.6l2.8,8.6L233,28h4.3L233,41.5H228.5z"/>
	<path class="st7" d="M252.5,41.5h-4l-0.1-1.5c-0.8,0.9-2.1,1.7-3.9,1.7c-3.3,0-6.4-2.7-6.4-7.1c0-4.3,3-6.7,6.2-6.7
		c1.9,0,3.3,0.9,4.1,1.8l0.1-1.6h4.1V41.5z M242.2,34.6c0,2.1,1.4,3.5,3.3,3.5c1.2,0,2.1-0.5,2.8-1.3l0-4.1
		c-0.7-0.9-1.8-1.5-2.9-1.5C243.7,31.2,242.2,32.4,242.2,34.6z"/>
	<path class="st7" d="M260,24.3c0,1.3-1,2.1-2.3,2.1c-1.3,0-2.3-0.9-2.3-2.2c0-1.2,1-2.2,2.3-2.2C259,22.1,260,23,260,24.3z
		 M255.6,41.5V28h4.2v13.4H255.6z"/>
	<path class="st7" d="M272.5,28v3.6h-3.8v4.2c0,1.6,1,2.2,2.1,2.2c0.9,0,1.6-0.3,2.2-0.6l1.2,3.1c-0.8,0.5-2.3,1.1-4.2,1.1
		c-3.3,0-5.5-2.3-5.5-5.4v-4.7h-2.4V28h2.4V24h4.2V28H272.5z"/>
	<path class="st7" d="M121.9,58v3.6h-3.8v4.2c0,1.6,1,2.2,2.1,2.2c0.9,0,1.6-0.3,2.2-0.6l1.2,3.1c-0.8,0.5-2.3,1.1-4.2,1.1
		c-3.3,0-5.5-2.3-5.5-5.4v-4.7h-2.4V58h2.4V54h4.2V58H121.9z"/>
	<path class="st7" d="M139.5,64.7c0,4.6-3.7,7-7.6,7c-4.1,0-7.6-2.6-7.6-7c0-4,3.2-7,7.6-7C135.9,57.7,139.5,60.3,139.5,64.7z
		 M128.5,64.7c0,2.2,1.6,3.4,3.4,3.4c1.7,0,3.3-1.2,3.3-3.4c0-2.3-1.6-3.4-3.3-3.4C130.1,61.3,128.5,62.5,128.5,64.7z"/>
	<path class="st7" d="M161.2,58.8l-1,3.2c-0.8-0.4-2.3-0.9-3.8-0.9c-1.2,0-2.1,0.4-2.1,1c0,0.8,1.5,0.7,3.4,1.1
		c2.3,0.4,4.6,1.5,4.6,4.3c0,3.3-3.1,4.5-6.4,4.4c-2.7,0-4.8-0.8-6.4-1.7l1.4-3.1c1.2,0.7,2.9,1.5,5.1,1.5c1.2,0,2.2-0.4,2.1-1
		c-0.1-0.9-1.7-0.8-3.7-1.2c-2.3-0.5-4.4-1.6-4.4-4.1c0-3,2.9-4.5,6.2-4.4C158.4,57.7,160.2,58.3,161.2,58.8z"/>
	<path class="st7" d="M178.5,65.9h-10.1c0.5,1.6,2,2.3,3.8,2.3c2,0,3.5-1,4.3-1.6l1.8,2.9c-1.1,0.9-3.4,2.1-6.3,2.1
		c-4.1,0-8.1-2.3-8.1-7.1c0-4.4,3.4-7,7.6-6.9C177,57.7,179.6,62.1,178.5,65.9z M174.6,63c0-1.1-1.1-2.1-2.9-2.1
		c-1.6,0-2.8,0.8-3.2,2.1H174.6z"/>
	<path class="st7" d="M195,65.9h-10.1c0.5,1.6,2,2.3,3.8,2.3c2,0,3.5-1,4.3-1.6l1.8,2.9c-1.1,0.9-3.4,2.1-6.3,2.1
		c-4.1,0-8.1-2.3-8.1-7.1c0-4.4,3.4-7,7.6-6.9C193.5,57.7,196.1,62.1,195,65.9z M191,63c0-1.1-1.1-2.1-2.9-2.1
		c-1.6,0-2.8,0.8-3.2,2.1H191z"/>
	<path class="st7" d="M211.5,79.1h-4.7l3.6-7.6L204.2,58h4.7l3.9,8.9l4-8.9h4.6L211.5,79.1z"/>
	<path class="st7" d="M236.8,64.7c0,4.6-3.7,7-7.6,7c-4.1,0-7.6-2.6-7.6-7c0-4,3.2-7,7.6-7C233.3,57.7,236.8,60.3,236.8,64.7z
		 M225.9,64.7c0,2.2,1.6,3.4,3.4,3.4c1.7,0,3.3-1.2,3.3-3.4c0-2.3-1.6-3.4-3.3-3.4C227.5,61.3,225.9,62.5,225.9,64.7z"/>
	<path class="st7" d="M248.7,71.5l-0.2-1.7c-0.6,0.7-2.3,2.1-4.6,2.1c-2.6,0-4.9-2-4.9-5.5V58h4.2v8c0,1.4,0.9,2.2,2.1,2.2
		c1.3,0,2.5-1,3-1.8V58h4.2v13.4H248.7z"/>
</g>
</svg>
